<mxfile host="app.diagrams.net" agent="Mozilla/5.0 (Windows NT 10.0; Win64; x64) AppleWebKit/537.36 (KHTML, like Gecko) Chrome/131.0.0.0 Safari/537.36" version="24.9.1">
  <diagram name="หน้า-1" id="7n2R_679eKvTWGpXYVrv">
    <mxGraphModel dx="1050" dy="530" grid="1" gridSize="10" guides="1" tooltips="1" connect="1" arrows="1" fold="1" page="1" pageScale="1" pageWidth="827" pageHeight="1169" math="0" shadow="0">
      <root>
        <mxCell id="0" />
        <mxCell id="1" parent="0" />
        <mxCell id="qHkN0wnDD1HUzu4hAczV-3" value="" style="edgeStyle=orthogonalEdgeStyle;rounded=0;orthogonalLoop=1;jettySize=auto;html=1;" edge="1" parent="1" source="qHkN0wnDD1HUzu4hAczV-1" target="qHkN0wnDD1HUzu4hAczV-2">
          <mxGeometry relative="1" as="geometry" />
        </mxCell>
        <mxCell id="qHkN0wnDD1HUzu4hAczV-1" value="Start" style="ellipse;whiteSpace=wrap;html=1;" vertex="1" parent="1">
          <mxGeometry x="354" y="10" width="120" height="80" as="geometry" />
        </mxCell>
        <mxCell id="qHkN0wnDD1HUzu4hAczV-5" value="" style="edgeStyle=orthogonalEdgeStyle;rounded=0;orthogonalLoop=1;jettySize=auto;html=1;" edge="1" parent="1" source="qHkN0wnDD1HUzu4hAczV-2" target="qHkN0wnDD1HUzu4hAczV-4">
          <mxGeometry relative="1" as="geometry" />
        </mxCell>
        <mxCell id="qHkN0wnDD1HUzu4hAczV-2" value="Input Number" style="shape=parallelogram;perimeter=parallelogramPerimeter;whiteSpace=wrap;html=1;fixedSize=1;" vertex="1" parent="1">
          <mxGeometry x="354" y="180" width="120" height="60" as="geometry" />
        </mxCell>
        <mxCell id="qHkN0wnDD1HUzu4hAczV-7" value="" style="edgeStyle=orthogonalEdgeStyle;rounded=0;orthogonalLoop=1;jettySize=auto;html=1;" edge="1" parent="1" source="qHkN0wnDD1HUzu4hAczV-4" target="qHkN0wnDD1HUzu4hAczV-6">
          <mxGeometry relative="1" as="geometry" />
        </mxCell>
        <mxCell id="qHkN0wnDD1HUzu4hAczV-4" value="Output RomanNumber" style="shape=parallelogram;perimeter=parallelogramPerimeter;whiteSpace=wrap;html=1;fixedSize=1;" vertex="1" parent="1">
          <mxGeometry x="354" y="320" width="120" height="60" as="geometry" />
        </mxCell>
        <mxCell id="qHkN0wnDD1HUzu4hAczV-6" value="End" style="ellipse;whiteSpace=wrap;html=1;" vertex="1" parent="1">
          <mxGeometry x="354" y="460" width="120" height="80" as="geometry" />
        </mxCell>
      </root>
    </mxGraphModel>
  </diagram>
</mxfile>
